<?xml version="1.0" encoding="UTF-8"?>
<!DOCTYPE svg PUBLIC "-//W3C//DTD SVG 1.1//EN" "http://www.w3.org/Graphics/SVG/1.1/DTD/svg11.dtd">
<!-- Creator: CorelDRAW -->
<svg xmlns="http://www.w3.org/2000/svg" xml:space="preserve" width="7.11111in" height="7.11111in" version="1.1" style="shape-rendering:geometricPrecision; text-rendering:geometricPrecision; image-rendering:optimizeQuality; fill-rule:evenodd; clip-rule:evenodd"
viewBox="0 0 7111 7111"
 xmlns:xlink="http://www.w3.org/1999/xlink">
 <defs>
  <style type="text/css">
   <![CDATA[
    .fil0 {fill:url(#id0)}
   ]]>
  </style>
  <linearGradient id="id0" gradientUnits="userSpaceOnUse" x1="3555.56" y1="514.965" x2="3555.56" y2="6596.15">
   <stop offset="0" style="stop-opacity:1; stop-color:#5CC6D0"/>
   <stop offset="0.490196" style="stop-opacity:1; stop-color:#A53692"/>
   <stop offset="1" style="stop-opacity:1; stop-color:#F06277"/>
  </linearGradient>
 </defs>
 <g id="Layer_x0020_1">
  <metadata id="CorelCorpID_0Corel-Layer"/>
  <path class="fil0" d="M3480 5219l-451 0c-58,0 -104,-46 -104,-104 0,-58 46,-104 104,-104l451 0c58,0 104,46 104,104 0,58 -46,104 -104,104zm2506 -2447c-625,0 -1134,-510 -1134,-1129 0,-94 11,-185 33,-272l-4234 0c-249,0 -451,203 -451,452l0 2864 6116 0 0 -1965c-105,32 -216,50 -330,50zm-1027 -1609c182,-384 574,-648 1027,-648 625,0 1128,509 1128,1128 0,425 -240,798 -590,990l0 2262c-12,359 -307,648 -666,648l-1909 0 0 417 150 0c174,0 319,144 319,318l0 214c0,64 -47,104 -99,104l-2129 0c-58,0 -104,-46 -104,-104l0 -214c0,-174 145,-318 318,-318l151 0 0 -417 -1904 0c-359,0 -654,-289 -654,-654l0 -98 0 0 0 0 0 -2974c0,-359 289,-654 654,-654l4308 0zm1027 -451c-380,0 -706,226 -851,549 0,2 0,4 0,6 0,30 -12,57 -33,76 -31,93 -48,192 -48,294 0,510 417,926 932,926 509,0 925,-416 925,-926 0,-509 -416,-925 -925,-925zm-6 1145c-151,0 -278,-127 -278,-277l0 -486c0,-151 122,-278 278,-278 156,0 278,121 278,278l0 486c0,150 -122,277 -278,277zm0 -839c-41,0 -75,35 -75,76l0 486c0,40 34,75 75,75 40,0 75,-35 75,-75l0 -486c0,-41 -35,-76 -75,-76zm6 1447c-157,0 -278,-127 -278,-278 0,-150 127,-278 278,-278 150,0 277,122 277,278 -5,156 -127,278 -277,278zm0 -353c-41,0 -76,35 -76,75 0,46 35,75 76,75 40,0 75,-34 75,-75 -6,-40 -35,-75 -75,-75zm-2793 2077c-188,-2 -357,-127 -475,-330l-320 0 -185 371c-17,23 -52,46 -92,46 -18,0 -29,-6 -47,-12 -52,-23 -69,-86 -46,-133l214 -422c17,-35 52,-58 93,-58l289 0c-39,-113 -65,-240 -76,-376l-260 0 -243 243c-23,17 -52,29 -75,29 -23,0 -52,-12 -69,-29 -41,-41 -41,-104 0,-145l272 -277c17,-18 46,-29 69,-29l302 0c3,-63 8,-123 17,-182l-261 -154 -249 249c-23,29 -46,35 -75,35 -23,0 -52,-12 -69,-29 -41,-41 -41,-105 0,-145l306 -307c35,-34 81,-40 122,-17l272 160c55,-188 145,-344 257,-448l-194 -291c-29,-46 -17,-110 29,-139 47,-28 110,-17 139,29l195 292c52,-20 107,-31 164,-31 55,0 109,10 159,29l194 -290c29,-46 92,-57 139,-29 46,29 57,93 29,139l-192 287c115,104 207,263 263,456l270 -158c40,-23 93,-18 121,17l307 307c41,40 41,104 0,144 -17,18 -40,24 -69,24 -23,0 -52,-12 -70,-29l-249 -249 -265 154c7,55 13,112 15,170l308 0c29,0 52,11 70,29l272 278c40,40 40,104 0,144 -23,23 -47,35 -76,35 -28,0 -52,-12 -69,-29l-243 -249 -265 0c-10,133 -36,258 -73,370l280 0c41,0 75,24 93,58l214 423c23,52 6,110 -46,133 -18,17 -29,23 -47,23 -34,0 -75,-23 -92,-58l-180 -370 -313 0c-118,209 -289,339 -481,341 -2,0 -3,0 -4,0 -1,0 -3,0 -4,0zm4 -1898c-97,0 -188,61 -262,164 72,18 145,29 216,32 14,-7 29,-11 46,-11 18,0 35,5 49,13 75,-1 146,-11 215,-31 -75,-104 -167,-167 -264,-167zm-359 341c-25,61 -46,129 -61,201 0,15 -2,30 -9,44 -14,78 -22,161 -22,246 7,14 11,30 11,48 0,15 -3,30 -9,44 9,180 49,346 110,478 8,10 13,21 17,33 58,114 133,198 218,237l0 -1283c-85,-8 -171,-24 -255,-48zm463 1331c82,-37 156,-117 214,-227 2,-27 14,-51 33,-68 56,-132 92,-295 99,-472 -3,-10 -5,-20 -5,-31 0,-12 2,-24 6,-34 0,-85 -8,-167 -21,-245 -8,-16 -11,-34 -10,-51 -15,-71 -35,-137 -59,-197 -84,23 -169,39 -257,45l0 1280zm440 1580l-978 0 0 417 978 0 0 -417zm-3541 -648l0 6c0,249 202,451 451,451l1960 0c14,-7 30,-11 48,-11 17,0 33,4 48,11l1090 0c14,-7 31,-11 48,-11 17,0 34,4 48,11l1971 0c249,0 452,-202 452,-451l0 -6 -6116 0zm3645 1273c-12,0 -24,-2 -35,-6l-1117 0c-11,4 -22,6 -34,6 -12,0 -24,-2 -35,-6l-220 0c-64,0 -116,52 -116,116l0 116 1927 0 0 -116c0,-64 -52,-116 -116,-116l-220 0c-10,4 -22,6 -34,6z"/>
 </g>
</svg>
