<?xml version="1.0" encoding="UTF-8" standalone="no"?> <svg width="64" height="64" viewBox="0 0 64 64" fill="none" xmlns="http://www.w3.org/2000/svg">
<path d="M61 22C61 24.3869 60.0518 26.6761 58.364 28.364C56.6761 30.0518 54.3869 31 52 31H10C8.14348 31 6.36301 30.2625 5.05025 28.9497C3.7375 27.637 3 25.8565 3 24C3 22.1435 3.7375 20.363 5.05025 19.0502C6.36301 17.7375 8.14348 17 10 17C10.3349 17.001 10.6692 17.0277 11 17.08V17C11.0001 15.8303 11.3422 14.6861 11.984 13.7082C12.6259 12.7303 13.5397 11.9614 14.6128 11.496C15.686 11.0306 16.8718 10.889 18.0244 11.0887C19.1769 11.2884 20.246 11.8207 21.1 12.62C21.3903 10.3045 22.4103 8.14158 24.0121 6.44456C25.6139 4.74755 27.7145 3.60458 30.0094 3.18125C32.3043 2.75792 34.6743 3.07621 36.7762 4.09002C38.8781 5.10382 40.6027 6.76048 41.7 8.81999C42.5322 7.96482 43.6005 7.37721 44.7683 7.13226C45.9362 6.88731 47.1506 6.99615 48.2562 7.44486C49.3619 7.89358 50.3087 8.66178 50.9756 9.65131C51.6424 10.6408 51.9991 11.8067 52 13C54.3869 13 56.6761 13.9482 58.364 15.636C60.0518 17.3239 61 19.613 61 22V22Z" fill="#3D9AE2"/>
<path d="M46 29V33L42.66 33.67C42.3974 34.7195 41.9794 35.724 41.42 36.65L43.31 39.49L40.49 42.31L37.65 40.42C36.724 40.9794 35.7195 41.3974 34.67 41.66L34.6 42H29.4L29.33 41.66C28.2805 41.3974 27.276 40.9794 26.35 40.42L23.51 42.31L20.69 39.49L22.58 36.65C22.0205 35.724 21.6026 34.7195 21.34 33.67L18 33V29L21.34 28.33C21.6026 27.2805 22.0205 26.276 22.58 25.35L20.69 22.51L23.51 19.69L26.35 21.58C27.276 21.0205 28.2805 20.6026 29.33 20.34L30 17H34L34.67 20.34C35.7195 20.6026 36.724 21.0205 37.65 21.58L40.49 19.69L43.31 22.51L41.42 25.35C41.9794 26.276 42.3974 27.2805 42.66 28.33L46 29Z" fill="#FF9811"/>
<path d="M35 42H29C28.7348 42 28.4804 42.1054 28.2929 42.2929C28.1054 42.4804 28 42.7348 28 43V60C28 60.2652 28.1054 60.5196 28.2929 60.7071C28.4804 60.8946 28.7348 61 29 61H35C35.2652 61 35.5196 60.8946 35.7071 60.7071C35.8946 60.5196 36 60.2652 36 60V43C36 42.7348 35.8946 42.4804 35.7071 42.2929C35.5196 42.1054 35.2652 42 35 42Z" fill="#00CCB3"/>
<path d="M33.55 25.21C32.5356 24.93 31.4644 24.93 30.45 25.21C29.0435 25.5861 27.8218 26.4608 27.0124 27.671C26.2031 28.8813 25.8615 30.3445 26.0511 31.788C26.2408 33.2315 26.9489 34.5568 28.0434 35.5169C29.1378 36.4769 30.5441 37.0063 32 37.0063C33.4559 37.0063 34.8622 36.4769 35.9566 35.5169C37.0511 34.5568 37.7592 33.2315 37.9489 31.788C38.1385 30.3445 37.7969 28.8813 36.9876 27.671C36.1782 26.4608 34.9565 25.5861 33.55 25.21Z" fill="#FF5023"/>
<path d="M49 12H47V14H49V12Z" fill="#96C8EF"/>
<path d="M45 12H43V14H45V12Z" fill="#96C8EF"/>
<path d="M52 28V26C53.0609 26 54.0783 25.5786 54.8284 24.8284C55.5786 24.0783 56 23.0609 56 22H58C57.9984 23.5908 57.3658 25.116 56.2409 26.2409C55.116 27.3658 53.5908 27.9984 52 28Z" fill="#96C8EF"/>
<path d="M50 26H48V28H50V26Z" fill="#96C8EF"/>
<path d="M35.5 37.063L34.5 35.332C35.1442 34.9604 35.6974 34.4498 36.1193 33.8374C36.5412 33.225 36.8211 32.5262 36.9388 31.7918C37.0564 31.0575 37.0088 30.3062 36.7993 29.5927C36.5899 28.8791 36.2239 28.2212 35.728 27.667L37.218 26.333C37.9121 27.1088 38.4244 28.0297 38.7176 29.0285C39.0108 30.0274 39.0776 31.079 38.913 32.1069C38.7484 33.1348 38.3566 34.1131 37.7662 34.9704C37.1758 35.8278 36.4016 36.5427 35.5 37.063Z" fill="#EE8700"/>
<path d="M28.5 37.063C27.5985 36.5425 26.8245 35.8275 26.2343 34.97C25.6441 34.1126 25.2525 33.1343 25.0881 32.1064C24.9238 31.0786 24.9907 30.0269 25.2841 29.0282C25.5774 28.0295 26.0898 27.1087 26.784 26.333L28.274 27.667C27.7781 28.2211 27.4119 28.8788 27.2023 29.5923C26.9927 30.3058 26.9449 31.0571 27.0624 31.7914C27.1798 32.5257 27.4596 33.2245 27.8813 33.837C28.303 34.4495 28.856 34.9603 29.5 35.332L28.5 37.063Z" fill="#EE8700"/>
<path d="M33 48H31V61H33V48Z" fill="#009986"/>
<path d="M33 29H31V42H33V29Z" fill="#898890"/>
<path d="M16 50H14V52H16V50Z" fill="#FFA733"/>
<path d="M16 46H14V48H16V46Z" fill="#FFA733"/>
<path d="M16 42H14V44H16V42Z" fill="#FFA733"/>
<path d="M6 43H4V45H6V43Z" fill="#FFA733"/>
<path d="M6 39H4V41H6V39Z" fill="#FFA733"/>
<path d="M6 35H4V37H6V35Z" fill="#FFA733"/>
<path d="M50 50H48V52H50V50Z" fill="#FFA733"/>
<path d="M50 46H48V48H50V46Z" fill="#FFA733"/>
<path d="M50 42H48V44H50V42Z" fill="#FFA733"/>
<path d="M16 54H14V56H12V58H14V60H16V58H18V56H16V54Z" fill="#FF9811"/>
<path d="M6 47H4V49H2V51H4V53H6V51H8V49H6V47Z" fill="#FF9811"/>
<path d="M50 54H48V56H46V58H48V60H50V58H52V56H50V54Z" fill="#FF9811"/>
<path d="M62 49H60V47H58V49H56V51H58V53H60V51H62V49Z" fill="#FF9811"/>
<path d="M60 43H58V45H60V43Z" fill="#FFA733"/>
<path d="M60 39H58V41H60V39Z" fill="#FFA733"/>
<path d="M60 35H58V37H60V35Z" fill="#FFA733"/>
<path d="M33.55 25.21L33 23H31L30.45 25.21L30 27V29H32H34V27L33.55 25.21Z" fill="#ACABB1"/>
</svg>
